<svg width="160" height="44" viewBox="0 0 160 44" fill="none" xmlns="http://www.w3.org/2000/svg">
<g clip-path="url(#clip0_34_259)">
<path d="M158.548 18.4775L154.913 43.9561H0L3.85293 18.4775H158.548Z" fill="#D22020"/>
<path d="M24.0066 2.0721C23.129 1.0473 20.6631 0.568848 16.2496 0.568848H6.84803L4.67394 14.6444H10.8086L11.5899 9.56847H13.9368L16.111 14.6444H22.5598L20.1083 9.2061L20.4536 9.13249C23.2676 8.53799 23.8168 7.36597 23.981 6.30153L24.3718 3.75367C24.485 3.02895 24.3689 2.49391 24.0066 2.0721ZM18.1775 4.16415L17.8944 6.06088C17.7472 7.01491 16.8103 7.19326 15.2363 7.19326H11.9664L12.6261 2.92989H15.8081C17.0509 2.92989 17.7077 3.07994 18.0134 3.43381C18.0948 3.53492 18.1518 3.65333 18.1803 3.77994C18.2088 3.90655 18.2078 4.03795 18.1775 4.16415Z" fill="white"/>
<path d="M41.5839 5.41264C40.7771 4.47277 38.5377 4.03394 34.5319 4.03394C27.8112 4.03394 26.2967 5.32483 25.9513 7.54996L25.3426 11.4935C25.2039 12.3994 25.32 13.0138 25.7192 13.4752C26.5685 14.4632 28.8021 14.9218 32.7626 14.9218C39.3757 14.9218 40.8817 13.7583 41.1733 11.8813L41.2328 11.485H35.2001L35.1124 12.0512C34.9991 12.7873 34.2489 12.9373 33.159 12.9373C32.3295 12.9373 31.8482 12.8071 31.5991 12.5155C31.5195 12.4123 31.4633 12.293 31.4345 12.1659C31.4056 12.0388 31.4048 11.9069 31.4321 11.7795L31.735 9.82606H41.4904L41.9237 7.02061C42.0199 6.32136 41.9123 5.80898 41.5839 5.41264ZM35.888 7.02628L35.6219 8.75028H31.8992L32.1568 7.09138C32.2729 6.34118 32.8646 6.02127 34.1385 6.02127C35.0218 6.02127 35.5002 6.14015 35.738 6.42041C35.8046 6.50479 35.8515 6.60294 35.8755 6.70772C35.8995 6.81251 35.8999 6.92133 35.8766 7.02628H35.888Z" fill="white"/>
<path d="M54.2327 4.31419L50.8355 11.8077L49.7032 4.31419H43.5202L47.2572 14.6444H53.4598L60.3531 4.31419H54.2327Z" fill="white"/>
<path d="M76.7982 5.47208C75.9489 4.49257 73.7153 4.03394 69.7491 4.03394C62.3264 4.03394 61.4544 5.69008 61.1685 7.53586L60.5569 11.4992C60.4154 12.4023 60.5315 13.0109 60.9278 13.4809C61.7771 14.4604 64.0107 14.9189 67.9769 14.9189C75.3996 14.9189 76.2716 13.2629 76.5575 11.4171L77.1718 7.45375C77.3105 6.54502 77.1945 5.93636 76.7982 5.47208ZM71.0825 7.17066L70.3521 11.8898C70.236 12.64 69.6642 12.9458 68.3704 12.9458C67.5353 12.9458 67.0511 12.8184 66.8048 12.5296C66.7268 12.4278 66.6717 12.3103 66.6434 12.1852C66.615 12.0601 66.6141 11.9304 66.6406 11.8049L67.371 7.08571C67.4871 6.33551 68.0589 6.02977 69.3527 6.02977C70.1878 6.02977 70.672 6.15716 70.9183 6.44592C70.9951 6.5467 71.0495 6.66271 71.0778 6.78624C71.1061 6.90977 71.1078 7.03797 71.0825 7.16216V7.17066Z" fill="white"/>
<path d="M80.4869 0.568848L78.3156 14.6444H84.4475L86.6216 0.568848H80.4869Z" fill="white"/>
<path d="M98.2568 4.3142L97.1244 11.6351C97.0564 12.0626 96.7111 12.7816 95.1286 12.7816C94.4067 12.7816 93.9339 12.6372 93.6791 12.3428C93.5918 12.2353 93.5293 12.1096 93.4965 11.9749C93.4637 11.8403 93.4614 11.7 93.4895 11.5643L94.6219 4.3142H88.4872L87.3066 11.9578C87.1679 12.8495 87.2756 13.444 87.6493 13.88C88.2494 14.5793 89.5997 14.919 91.7823 14.919C94.2141 14.919 96.0486 14.1631 96.8781 13.5176L97.2802 13.2034L97.4302 14.6387H102.809L104.406 4.30853L98.2568 4.3142Z" fill="white"/>
<path d="M113.207 6.22509H116.038L116.321 4.3142H113.49L113.901 1.64462L107.605 2.7034L107.358 4.3142H106.002L105.719 6.22509H107.072L106.28 11.3689C106.104 12.5013 106.195 13.1383 106.591 13.5997C107.203 14.3131 108.663 14.6444 111.186 14.6444H114.75L115.047 12.7335H113.567C113.054 12.7335 112.717 12.6287 112.53 12.3994C112.449 12.2957 112.392 12.1748 112.363 12.0459C112.335 11.917 112.336 11.7833 112.366 11.6548L113.207 6.22509Z" fill="white"/>
<path d="M118.376 0.61412L118.065 2.63263H124.197L124.508 0.61412H118.376ZM117.81 4.3142L116.216 14.6444H122.348L123.945 4.3142H117.81Z" fill="white"/>
<path d="M141.276 5.47208C140.427 4.49257 138.193 4.03394 134.227 4.03394C126.804 4.03394 125.935 5.69008 125.649 7.53586L125.035 11.4992C124.896 12.4023 125.009 13.0109 125.409 13.4809C126.258 14.4604 128.489 14.9189 132.458 14.9189C139.88 14.9189 140.749 13.2629 141.035 11.4171L141.65 7.45375C141.8 6.54502 141.672 5.93636 141.276 5.47208ZM135.56 7.17066L134.833 11.8898C134.717 12.64 134.142 12.9458 132.851 12.9458C132.002 12.9458 131.535 12.8184 131.286 12.5296C131.208 12.4277 131.153 12.3101 131.125 12.185C131.098 12.0598 131.097 11.9302 131.124 11.8049L131.852 7.08571C131.968 6.33551 132.543 6.02977 133.833 6.02977C134.683 6.02977 135.15 6.15716 135.396 6.44592C135.476 6.54542 135.533 6.66104 135.563 6.78472C135.593 6.9084 135.596 7.03719 135.572 7.16216L135.56 7.17066Z" fill="white"/>
<path d="M159.556 5.20316C158.89 4.42747 157.461 4.03394 155.309 4.03394C153.158 4.03394 151.586 4.46707 150.312 5.44941L149.913 5.75518L149.763 4.32553H144.384L142.791 14.6557H148.923L150.055 7.33481C150.12 6.90733 150.471 6.20242 152.087 6.20242C152.843 6.20242 153.316 6.34399 153.574 6.6469C153.662 6.753 153.725 6.87769 153.757 7.01155C153.79 7.14542 153.792 7.28497 153.763 7.41975L152.631 14.6699H158.786L159.966 7.02628C160.076 6.24493 159.946 5.65611 159.556 5.20316Z" fill="white"/>
<path d="M39.9194 25.6794C39.0701 24.6999 36.6835 24.2243 32.59 24.2243H24.8813L22.9958 36.4229H30.6394C37.8612 36.4229 39.0841 34.9593 39.3276 33.3768L40.2846 27.1855C40.3439 26.9233 40.3417 26.6509 40.2783 26.3896C40.215 26.1284 40.0922 25.8853 39.9194 25.6794ZM34.9339 27.5507L34.0621 33.1843C33.9234 34.0817 33.0685 34.4328 31.0132 34.4328H28.5615L29.8298 26.223H32.1908C33.6402 26.223 34.4017 26.39 34.7386 26.7892C34.8259 26.8935 34.8888 27.016 34.9226 27.1478C34.9564 27.2795 34.9603 27.4172 34.9339 27.5507Z" fill="white"/>
<path d="M55.2348 28.4339C54.5384 27.6214 52.5935 27.2449 49.1143 27.2449C42.671 27.2449 41.9151 28.6802 41.6688 30.2797L41.1366 33.7194C41.0148 34.4979 41.1139 35.0244 41.4564 35.4179C42.1868 36.2672 44.1289 36.6664 47.5713 36.6664C53.3097 36.6664 54.6177 35.6642 54.8696 34.0449L54.9148 33.742H49.7257L49.6549 34.2006C49.553 34.8687 48.8849 35.0046 47.9139 35.0046C47.1807 35.0046 46.7532 34.8885 46.5267 34.6253C46.4541 34.5312 46.4027 34.4225 46.3763 34.3066C46.3499 34.1908 46.3491 34.0705 46.3739 33.9543L46.6428 32.2218H55.1498L55.5236 29.8041C55.5825 29.5688 55.587 29.3231 55.537 29.0857C55.487 28.8484 55.3837 28.6255 55.2348 28.4339ZM50.3315 29.8211L50.0938 31.3583H46.7758L47.0051 29.8692C47.1099 29.1926 47.6364 28.9039 48.7688 28.9039C49.5502 28.9039 49.9776 29.0115 50.1843 29.2634C50.2491 29.3394 50.2961 29.4289 50.3216 29.5255C50.3471 29.622 50.3504 29.7231 50.3315 29.8211Z" fill="white"/>
<path d="M63.4247 29.0822H65.9047L66.1509 27.4884H63.6654L64.022 25.1698L58.6064 26.0786L58.3913 27.4941H57.208L56.9645 29.0879H58.145L57.4457 33.6174C57.2957 34.5856 57.3722 35.1405 57.709 35.534C58.2356 36.1483 59.4981 36.4314 61.6865 36.4314H64.7667L65.0129 34.8404H63.7645C63.3059 34.8404 63.0114 34.7441 62.8331 34.5347C62.7579 34.4404 62.7053 34.3301 62.6792 34.2124C62.6532 34.0946 62.6545 33.9724 62.683 33.8553L63.4247 29.0822Z" fill="white"/>
<path d="M80.4275 28.4878C79.7027 27.6385 77.7805 27.2449 74.3777 27.2449C68.7582 27.2449 67.5155 28.182 67.2635 29.7928L67.1871 30.2854H72.3026L72.3932 29.7022C72.4951 29.0369 73.1236 28.8982 74.0351 28.8982C74.7372 28.8982 75.1477 29.0115 75.3628 29.2634C75.4365 29.3597 75.4883 29.4709 75.5142 29.5893C75.5401 29.7076 75.5397 29.8303 75.513 29.9485L75.1761 32.1255L74.8336 31.9641C74.072 31.6074 72.716 31.4121 71.0174 31.4121C67.207 31.4121 66.5274 32.4709 66.3689 33.5099L66.2019 34.5828C66.1505 34.7892 66.147 35.0048 66.1917 35.2128C66.2363 35.4208 66.328 35.6159 66.4596 35.7831C66.9578 36.3663 68.1892 36.6635 70.1199 36.6635C72.0506 36.6635 73.8172 36.321 74.6297 35.7661L74.992 35.5198L75.1505 36.4173H79.8018L80.7643 30.1892C80.8691 29.4135 80.77 28.8869 80.4275 28.4878ZM74.9552 33.5665L74.8052 34.5375C74.7061 35.1773 73.8229 35.2622 72.9764 35.2622C72.2262 35.2622 71.8213 35.1632 71.6232 34.931C71.5676 34.8659 71.5275 34.7889 71.5059 34.7061C71.4844 34.6232 71.4818 34.5365 71.4986 34.4525L71.6487 33.4787C71.7478 32.8417 72.498 32.754 73.2765 32.754C74.1485 32.754 74.6127 32.8615 74.8307 33.1163C74.8836 33.1774 74.9222 33.2495 74.9437 33.3273C74.9653 33.4052 74.9692 33.4869 74.9552 33.5665Z" fill="white"/>
<path d="M83.4141 27.4884L82.0355 36.4229H87.3095L88.691 27.4884H83.4141ZM83.9124 24.2611L83.652 25.9597H88.926L89.1893 24.2611H83.9124Z" fill="white"/>
<path d="M91.3493 24.2243L89.4668 36.4229H94.7408L96.6234 24.2243H91.3493Z" fill="white"/>
<path d="M98.3616 27.4884L96.9829 36.4229H102.257L103.636 27.4884H98.3616ZM98.8598 24.2611L98.5994 25.9597H103.865L104.125 24.2611H98.8598Z" fill="white"/>
<path d="M118.96 28.2528C118.393 27.5847 117.151 27.2449 115.279 27.2449C113.408 27.2449 112.049 27.6186 110.945 28.4623L110.546 28.768L110.41 27.4884H105.793L104.414 36.4229H109.688L110.668 30.0731C110.727 29.688 111.041 29.0398 112.477 29.0398C113.148 29.0398 113.57 29.1672 113.802 29.4389C113.881 29.5361 113.938 29.6498 113.968 29.7716C113.999 29.8935 114.002 30.0207 113.977 30.1438L113.006 36.4229H118.28L119.305 29.7843C119.368 29.5196 119.369 29.244 119.31 28.9785C119.25 28.7131 119.13 28.4649 118.96 28.2528Z" fill="white"/>
<path d="M130.966 27.4913L130.456 28.7085L130.156 28.4C129.641 27.8678 128.285 27.2449 126.159 27.2449C122.479 27.2449 121.564 28.3377 121.309 29.9796L120.817 33.1673C120.695 33.9543 120.794 34.5035 121.128 34.8914C121.66 35.5142 122.846 35.8142 124.746 35.8142C126.108 35.8453 127.457 35.5462 128.678 34.9423L129.179 34.6762L128.775 37.2835C128.67 37.9686 128.177 38.2489 127.076 38.2489C126.306 38.2489 125.91 38.1498 125.706 37.9148C125.643 37.8363 125.598 37.7448 125.575 37.6468C125.552 37.5489 125.551 37.4469 125.573 37.3486L125.652 36.8447H120.537L120.452 37.4109C120.358 38.0139 120.452 38.4499 120.735 38.7754C121.397 39.5511 123.305 39.9078 126.739 39.9078C133.12 39.9078 133.887 38.3933 134.128 36.8391L135.572 27.4969L130.966 27.4913ZM129.887 30.0787L129.417 33.1362C129.287 33.9855 128.406 34.0873 127.653 34.0873C126.9 34.0873 126.493 33.9685 126.266 33.7024C126.192 33.6125 126.139 33.5069 126.112 33.3935C126.085 33.2801 126.085 33.162 126.111 33.0484L126.583 29.9938C126.714 29.1445 127.594 29.0426 128.344 29.0426C129.095 29.0426 129.508 29.1586 129.734 29.4248C129.807 29.5151 129.859 29.6209 129.886 29.7342C129.912 29.8474 129.913 29.9653 129.887 30.0787Z" fill="white"/>
</g>
<defs>
<clipPath id="clip0_34_259">
<rect width="160" height="43.3872" fill="white" transform="translate(0 0.568848)"/>
</clipPath>
</defs>
</svg>
